<mxfile host="app.diagrams.net" agent="Mozilla/5.0 (Windows NT 10.0; Win64; x64) AppleWebKit/537.36 (KHTML, like Gecko) Chrome/135.0.0.0 Safari/537.36" version="26.1.0">
  <diagram name="第 1 页" id="yqkmy5sBXUVOjIypKYsF">
    <mxGraphModel dx="1430" dy="763" grid="0" gridSize="10" guides="1" tooltips="1" connect="1" arrows="1" fold="1" page="1" pageScale="1" pageWidth="827" pageHeight="1169" math="0" shadow="0">
      <root>
        <mxCell id="0" />
        <mxCell id="1" parent="0" />
        <mxCell id="YVTTXJFYwQfTiN0i_-cF-1" value="登录功能" style="rounded=0;whiteSpace=wrap;html=1;" vertex="1" parent="1">
          <mxGeometry x="280" y="661" width="40" height="250" as="geometry" />
        </mxCell>
        <mxCell id="YVTTXJFYwQfTiN0i_-cF-2" value="多源数据采集" style="rounded=0;whiteSpace=wrap;html=1;" vertex="1" parent="1">
          <mxGeometry x="330" y="661" width="40" height="250" as="geometry" />
        </mxCell>
        <mxCell id="YVTTXJFYwQfTiN0i_-cF-3" value="温度数据管理" style="rounded=0;whiteSpace=wrap;html=1;" vertex="1" parent="1">
          <mxGeometry x="380" y="661" width="40" height="250" as="geometry" />
        </mxCell>
        <mxCell id="YVTTXJFYwQfTiN0i_-cF-4" value="压力数据管理" style="rounded=0;whiteSpace=wrap;html=1;" vertex="1" parent="1">
          <mxGeometry x="430" y="661" width="40" height="250" as="geometry" />
        </mxCell>
        <mxCell id="YVTTXJFYwQfTiN0i_-cF-5" value="流量数据管理" style="rounded=0;whiteSpace=wrap;html=1;" vertex="1" parent="1">
          <mxGeometry x="480" y="661" width="40" height="250" as="geometry" />
        </mxCell>
        <mxCell id="YVTTXJFYwQfTiN0i_-cF-6" value="采集设备管理" style="rounded=0;whiteSpace=wrap;html=1;" vertex="1" parent="1">
          <mxGeometry x="530" y="661" width="40" height="250" as="geometry" />
        </mxCell>
        <mxCell id="YVTTXJFYwQfTiN0i_-cF-7" value="用户管理" style="rounded=0;whiteSpace=wrap;html=1;" vertex="1" parent="1">
          <mxGeometry x="580" y="661" width="40" height="250" as="geometry" />
        </mxCell>
        <mxCell id="YVTTXJFYwQfTiN0i_-cF-8" value="温度传感器设备" style="rounded=0;whiteSpace=wrap;html=1;" vertex="1" parent="1">
          <mxGeometry x="80" y="661" width="40" height="250" as="geometry" />
        </mxCell>
        <mxCell id="YVTTXJFYwQfTiN0i_-cF-9" value="压力传感器设备" style="rounded=0;whiteSpace=wrap;html=1;" vertex="1" parent="1">
          <mxGeometry x="130" y="661" width="40" height="250" as="geometry" />
        </mxCell>
        <mxCell id="YVTTXJFYwQfTiN0i_-cF-10" value="流量传感器设备" style="rounded=0;whiteSpace=wrap;html=1;" vertex="1" parent="1">
          <mxGeometry x="180" y="661" width="40" height="250" as="geometry" />
        </mxCell>
        <mxCell id="YVTTXJFYwQfTiN0i_-cF-14" style="edgeStyle=orthogonalEdgeStyle;rounded=0;orthogonalLoop=1;jettySize=auto;html=1;exitX=0.5;exitY=1;exitDx=0;exitDy=0;entryX=0.5;entryY=0;entryDx=0;entryDy=0;" edge="1" parent="1" source="YVTTXJFYwQfTiN0i_-cF-12" target="YVTTXJFYwQfTiN0i_-cF-8">
          <mxGeometry relative="1" as="geometry">
            <Array as="points">
              <mxPoint x="150" y="640" />
              <mxPoint x="100" y="640" />
            </Array>
          </mxGeometry>
        </mxCell>
        <mxCell id="YVTTXJFYwQfTiN0i_-cF-15" style="edgeStyle=orthogonalEdgeStyle;rounded=0;orthogonalLoop=1;jettySize=auto;html=1;exitX=0.5;exitY=1;exitDx=0;exitDy=0;" edge="1" parent="1" source="YVTTXJFYwQfTiN0i_-cF-12" target="YVTTXJFYwQfTiN0i_-cF-9">
          <mxGeometry relative="1" as="geometry" />
        </mxCell>
        <mxCell id="YVTTXJFYwQfTiN0i_-cF-16" style="edgeStyle=orthogonalEdgeStyle;rounded=0;orthogonalLoop=1;jettySize=auto;html=1;exitX=0.5;exitY=1;exitDx=0;exitDy=0;" edge="1" parent="1" source="YVTTXJFYwQfTiN0i_-cF-12" target="YVTTXJFYwQfTiN0i_-cF-10">
          <mxGeometry relative="1" as="geometry">
            <Array as="points">
              <mxPoint x="150" y="640" />
              <mxPoint x="200" y="640" />
            </Array>
          </mxGeometry>
        </mxCell>
        <mxCell id="YVTTXJFYwQfTiN0i_-cF-12" value="采集端" style="rounded=0;whiteSpace=wrap;html=1;" vertex="1" parent="1">
          <mxGeometry x="80" y="580" width="140" height="37" as="geometry" />
        </mxCell>
        <mxCell id="YVTTXJFYwQfTiN0i_-cF-17" style="edgeStyle=orthogonalEdgeStyle;rounded=0;orthogonalLoop=1;jettySize=auto;html=1;exitX=0.5;exitY=1;exitDx=0;exitDy=0;entryX=0.5;entryY=0;entryDx=0;entryDy=0;" edge="1" parent="1" source="YVTTXJFYwQfTiN0i_-cF-13" target="YVTTXJFYwQfTiN0i_-cF-1">
          <mxGeometry relative="1" as="geometry" />
        </mxCell>
        <mxCell id="YVTTXJFYwQfTiN0i_-cF-18" style="edgeStyle=orthogonalEdgeStyle;rounded=0;orthogonalLoop=1;jettySize=auto;html=1;exitX=0.5;exitY=1;exitDx=0;exitDy=0;entryX=0.5;entryY=0;entryDx=0;entryDy=0;" edge="1" parent="1" source="YVTTXJFYwQfTiN0i_-cF-13" target="YVTTXJFYwQfTiN0i_-cF-2">
          <mxGeometry relative="1" as="geometry" />
        </mxCell>
        <mxCell id="YVTTXJFYwQfTiN0i_-cF-19" style="edgeStyle=orthogonalEdgeStyle;rounded=0;orthogonalLoop=1;jettySize=auto;html=1;exitX=0.5;exitY=1;exitDx=0;exitDy=0;entryX=0.5;entryY=0;entryDx=0;entryDy=0;" edge="1" parent="1" source="YVTTXJFYwQfTiN0i_-cF-13" target="YVTTXJFYwQfTiN0i_-cF-3">
          <mxGeometry relative="1" as="geometry" />
        </mxCell>
        <mxCell id="YVTTXJFYwQfTiN0i_-cF-20" style="edgeStyle=orthogonalEdgeStyle;rounded=0;orthogonalLoop=1;jettySize=auto;html=1;exitX=0.5;exitY=1;exitDx=0;exitDy=0;entryX=0.5;entryY=0;entryDx=0;entryDy=0;" edge="1" parent="1" source="YVTTXJFYwQfTiN0i_-cF-13" target="YVTTXJFYwQfTiN0i_-cF-4">
          <mxGeometry relative="1" as="geometry" />
        </mxCell>
        <mxCell id="YVTTXJFYwQfTiN0i_-cF-21" style="edgeStyle=orthogonalEdgeStyle;rounded=0;orthogonalLoop=1;jettySize=auto;html=1;exitX=0.5;exitY=1;exitDx=0;exitDy=0;entryX=0.5;entryY=0;entryDx=0;entryDy=0;" edge="1" parent="1" source="YVTTXJFYwQfTiN0i_-cF-13" target="YVTTXJFYwQfTiN0i_-cF-5">
          <mxGeometry relative="1" as="geometry" />
        </mxCell>
        <mxCell id="YVTTXJFYwQfTiN0i_-cF-22" style="edgeStyle=orthogonalEdgeStyle;rounded=0;orthogonalLoop=1;jettySize=auto;html=1;exitX=0.5;exitY=1;exitDx=0;exitDy=0;entryX=0.5;entryY=0;entryDx=0;entryDy=0;" edge="1" parent="1" source="YVTTXJFYwQfTiN0i_-cF-13" target="YVTTXJFYwQfTiN0i_-cF-6">
          <mxGeometry relative="1" as="geometry" />
        </mxCell>
        <mxCell id="YVTTXJFYwQfTiN0i_-cF-23" style="edgeStyle=orthogonalEdgeStyle;rounded=0;orthogonalLoop=1;jettySize=auto;html=1;exitX=0.5;exitY=1;exitDx=0;exitDy=0;entryX=0.5;entryY=0;entryDx=0;entryDy=0;" edge="1" parent="1" source="YVTTXJFYwQfTiN0i_-cF-13" target="YVTTXJFYwQfTiN0i_-cF-7">
          <mxGeometry relative="1" as="geometry" />
        </mxCell>
        <mxCell id="YVTTXJFYwQfTiN0i_-cF-13" value="处理端" style="rounded=0;whiteSpace=wrap;html=1;" vertex="1" parent="1">
          <mxGeometry x="280" y="580" width="340" height="37" as="geometry" />
        </mxCell>
      </root>
    </mxGraphModel>
  </diagram>
</mxfile>
